<?xml version="1.0" standalone="no"?>
<!DOCTYPE svg PUBLIC "-//W3C//DTD SVG 20010904//EN"
 "http://www.w3.org/TR/2001/REC-SVG-20010904/DTD/svg10.dtd">
<svg version="1.0" xmlns="http://www.w3.org/2000/svg"
 width="287.000000pt" height="287.000000pt" viewBox="0 0 287.000000 287.000000"
 preserveAspectRatio="xMidYMid meet">
<metadata>
Created by potrace 1.14, written by Peter Selinger 2001-2017
</metadata>
<g transform="translate(0.000000,287.000000) scale(0.100000,-0.100000)"
fill="#000000" stroke="none">
<path d="M1524 2696 c-3 -8 -4 -29 -2 -48 2 -28 7 -34 31 -36 22 -3 27 -8 27
-31 0 -26 -5 -30 -45 -40 -53 -13 -122 -71 -142 -118 -8 -21 -13 -75 -13 -157
0 -115 -1 -124 -20 -129 -19 -5 -20 -14 -20 -325 0 -314 0 -320 21 -325 17 -5
20 -12 17 -49 l-3 -43 -112 -3 -113 -3 0 50 0 50 68 3 67 3 0 320 0 320 -67 3
-68 3 0 45 0 45 -67 -3 -68 -3 -3 -42 -3 -42 -62 -3 -62 -3 -3 -322 -2 -323
70 0 70 0 0 -50 0 -50 -110 0 -110 0 -1 283 c0 191 -4 293 -12 316 -16 45 -54
72 -111 78 l-46 6 0 -391 0 -390 31 -26 31 -26 292 0 292 0 26 -62 26 -63 78
-5 79 -5 0 -50 c0 -47 -2 -50 -27 -53 l-28 -3 0 -170 c0 -162 1 -169 20 -169
18 0 20 -7 20 -55 0 -40 4 -57 15 -61 12 -5 15 -27 15 -115 0 -90 3 -109 15
-109 11 0 15 -12 15 -50 0 -27 4 -50 10 -50 5 0 10 -25 12 -55 4 -72 22 -76
26 -5 2 35 9 58 18 63 9 5 14 24 14 51 0 30 5 46 15 50 12 4 15 26 15 111 0
85 3 107 15 111 11 4 15 21 15 59 0 44 3 53 20 58 20 5 20 12 18 169 l-3 163
-27 3 c-27 3 -28 6 -28 58 l0 54 64 0 c59 0 65 2 68 23 5 33 44 35 52 3 6 -23
11 -26 52 -26 l45 0 -3 63 -3 62 -40 0 c-32 0 -42 -5 -50 -23 -6 -13 -18 -22
-32 -22 -20 0 -23 5 -23 35 0 19 -4 35 -10 35 -5 0 -10 18 -10 39 0 60 -26 85
-96 91 l-59 5 -3 48 -3 47 70 0 71 0 0 325 0 325 -36 0 -36 0 43 33 c58 44 84
98 83 167 -2 96 -48 161 -140 196 -37 14 -44 21 -44 45 0 21 5 28 23 31 19 3
22 9 22 48 l0 45 -63 3 c-47 2 -64 -1 -68 -12z m106 -36 c0 -16 -7 -20 -34
-20 -36 0 -52 12 -41 30 3 6 22 10 41 10 27 0 34 -4 34 -20z m12 -150 c72 -20
138 -128 122 -197 -18 -76 -64 -127 -131 -148 -21 -6 -23 -3 -23 30 l0 36 -67
-3 -68 -3 -3 -42 c-3 -40 -5 -43 -33 -43 l-29 0 0 120 c0 157 22 206 110 244
42 18 72 19 122 6z m-522 -340 c0 -28 -3 -30 -35 -30 -32 0 -35 2 -35 30 0 28
3 30 35 30 32 0 35 -2 35 -30z m460 0 c0 -28 -2 -30 -40 -30 -38 0 -40 2 -40
30 0 28 2 30 40 30 38 0 40 -2 40 -30z m-322 -357 l2 -293 -175 0 -175 0 0
295 0 295 173 -2 172 -3 3 -292z m452 2 l0 -295 -170 0 -170 0 0 295 0 295
170 0 170 0 0 -295z m-997 214 c50 -23 52 -33 57 -359 l5 -305 468 -5 c510 -5
487 -2 487 -62 l0 -28 -519 0 -520 0 -15 22 c-14 19 -16 73 -16 385 0 393 -2
377 53 352z m397 -589 c0 -49 -1 -50 -30 -50 -29 0 -30 1 -30 50 0 49 1 50 30
50 29 0 30 -1 30 -50z m370 0 l0 -50 -35 0 -35 0 0 50 0 50 35 0 35 0 0 -50z
m90 0 c0 -49 -1 -50 -30 -50 -29 0 -30 1 -30 50 0 49 1 50 30 50 29 0 30 -1
30 -50z m180 -255 l0 -45 -198 0 -198 0 -17 35 c-9 20 -17 40 -17 45 0 6 83
10 215 10 l215 0 0 -45z m150 -15 c0 -20 -5 -30 -15 -30 -10 0 -15 10 -15 30
0 20 5 30 15 30 10 0 15 -10 15 -30z m-280 -115 l0 -45 -50 0 -50 0 0 45 0 45
50 0 50 0 0 -45z m50 -225 l0 -140 -105 0 -105 0 0 140 0 140 105 0 105 0 0
-140z m-32 -209 c2 -23 -2 -37 -12 -43 -13 -7 -16 -29 -16 -118 l0 -110 -40 0
-40 0 0 109 c0 88 -3 110 -15 115 -10 3 -15 19 -15 46 l0 41 68 -3 67 -3 3
-34z m-58 -336 c0 -19 -4 -35 -10 -35 -5 0 -10 16 -10 35 0 19 5 35 10 35 6 0
10 -16 10 -35z"/>
<path d="M1557 2399 c-69 -40 -7 -157 63 -119 44 24 51 70 15 105 -26 27 -49
31 -78 14z m63 -34 c14 -17 4 -55 -16 -55 -8 0 -17 0 -21 -1 -5 0 -14 8 -21
19 -11 17 -10 22 3 36 20 20 39 20 55 1z"/>
</g>
</svg>
